<svg id="logoThick" viewBox="0 0 369 201" fill="none" xmlns="http://www.w3.org/2000/svg">
    <g fill="var(--md50)">
        <path d="M40.6 92.4L61.2 98.9L65.7 104.3L73.2 112.4L73.8 104.8L71.9 98.4L63.8 95.6L40.6 92.4Z" />
        <path d="M120.9 51.4L121.974 76.3L118.8 85.9L116.958 92.9L118.5 102.7L124.992 116.2L125.4 133.6L116.8 157.953L108.1 178.7L108.3 185.8L119.9 170.5L128.4 152.9L134.4 152.3L139.7 142.9L146.5 123L142.9 108.5L137.4 108.3L131.8 115.9L128.966 87.8L130.2 80.2L130.2 65.3L120.9 51.4Z" />
        <path d="M26.8 68.8L27.9 85L23.4 100L25.5 128.1L32.4 162.1L48.3 180.1L50.6 188.4L29.9935 166.2L22.8 150.5L18.6 113.7L16.9843 99.4L22.8 85.7L21.2 70.8L31.7 53.7L26.8 68.8Z" />
        <path d="M85.9 99.6L92.7 96.7L116.958 92.9L93.9 99.5L88.8 106.8L89.4 121.3L95.8 128L93.3 137.8L81.2 139.3L75.4 139.3L62.4 136.7L59.9 127.6L63.3 133.5L72.5 131.2L80 133.6L86.7 131.2L88.8 125.8L84.6 118.5L84.5 105.8L85.9 99.6Z" />
        <path d="M54.7 153.3L57.2 152.3L73.6 150.1L76.4 151.4L80 150.7L95.5 154.4L98.2 156L97.4 157L82.6 154.6L76.4 155.3L70.5 154L56.7 155.2L54.7 153.3Z" />
        <path d="M64.9 164.3L71.9 170.3L81.4 171.2L87.5 164.7L82.5 166.4L70.1 165.6L64.9 164.3Z" />
    </g>
    <g fill="var(--dr)">
        <path d="M103.8 96.7L111.7 97.5L117.8 101.6L111.1 99.8L108 99.6L107.3 102.7L103.7 104.2L99.9 102.5L99.3 99.6L94.7 100.4L92.1 102.1L93.9 99.5L103.8 96.7Z" />
        <path d="M53.8 96.5L61.2 98.9L63.5 101.6L60.7 99.8L57.9708 99.5L57.5 102L53.4 103.6L49 101.985L48.5 99L45.3 99L40.6 100.7L44.9 97.8L53.8 96.5Z" />
        <path d="M30.6 97.1L39.6 85.1L65.2 90.5L71.9 98.4L63.8 95.6L40.6 92.4L30.6 97.1Z" />
        <path d="M65.7 134.7L70.6 134.3L74.1 135.9L68.5 136.3L65.7 134.7Z" />
        <path d="M83.2 136.7L86.9942 134.7L91.7 135.5L87.4 137.2L83.2 136.7Z" />
        <path d="M48.3 180.1L50.6 188.4L67.9 199.6L90.5 198.4L108.3 185.8L108.1 178.7L89.4 186.8L65.1 187.8L48.3 180.1Z" />
        <path d="M85.9 99.6L90.1 92L118.8 85.9L125.7 98.7L116.958 92.9L92.7 96.7L85.9 99.6Z" />
        <path d="M131.8 115.9L128.966 87.8L130.2 80.2L130.2 65.3L118.3 47.2L114.9 31.2L105.2 17.1L111.8 31L114.5 46.3L104.977 44.1L97.4 24.9L75.5 12.9894L93.6 25.1L101.5 44.9L95.5 44.3L81.5 32.4L54.5 31.6L79.3 34.6L91.5 45.6L79.1 47L65.4 52.4L54.7 59.8L31.7 53.7L21.2 70.8L22.8 85.7L16.9843 99.4L18.6 113.7L9 106.5L7.4 61.3L10.2 40.8L14.6 37.8L14.5 30.9544L25.9935 16.6L41.5 8.1L46.5 8.4L49.7 3.9L68.3 1.1L88.6 3.4L93.4 7.3L95.5 5.5L116.4 12.1L130.1 28.5L132.4 35.9674L135.1 39.4L140.1 57.5L141 86.3L137.4 108.3L131.8 115.9Z" />
        <path d="M103.8 96.7L111.7 97.5L117.8 101.6L111.1 99.8L108 99.6L107.3 102.7L103.7 104.2L99.9 102.5L99.3 99.6L94.7 100.4L92.1 102.1L93.9 99.5L103.8 96.7Z" />
        <path d="M53.8 96.5L61.2 98.9L63.5 101.6L60.7 99.8L57.9708 99.5L57.5 102L53.4 103.6L49 101.985L48.5 99L45.3 99L40.6 100.7L44.9 97.8L53.8 96.5Z" />
        <path d="M50.3 153.7L51.9 148.3L71.2 142.4L77.4 144.3L83 143.95L102.4 150.4L102.9 155.7L99.9814 153.4L82.6 147.3L76.6 147.6L71.9 146.2L53.2 151.6L50.3 153.7Z" />
        <path d="M191.3 63.9C193.4 63.9 195.4 64.3 197.1 65.1C198.994 65.9 200.6 67 201.9 68.5C203.2 69.9 204.2 71.6 204.9 73.6C205.7 75.5 206.1 77.7 206.1 80C206.1 82.2 205.7 84.2 205 86.1C204.4 88 203.4 89.7 202.2 91.1C200.9 92.4 199.4 93.5 197.7 94.3C196.1 95.1 194.2 95.5 192.1 95.5H168.9V86.1H189.4C190.4 86.1 191.3 85.9 192.2 85.7C193.2 85.4 193.956 85.1 194.6 84.6C195.3 84.1 195.8 83.4 196.2 82.7C196.6 81.9 196.8 81.1 196.8 80C196.8 78.1 196.1 76.5 194.8 75.4C193.6 74.3 192 73.8 190.1 73.8H184.1C181.5 73.8 179.2 73.5 177.1 72.9705C175 72.4 173.2 71.5 171.8 70.4C170.3 69.2 169.2 67.6 168.4 65.7C167.6 63.8 167.2 61.5 167.2 58.9C167.2 57.1 167.5 55.3 168.2 53.5C168.8 51.8 169.7 50.2 170.9 48.952C172 47.6 173.4 46.5 175.1 45.7C176.7 44.9 178.5 44.5 180.5 44.5H201.6V54.5H184.4C183.4 54.5 182.5 54.6 181.7 54.7C180.8 54.8 180.1 55 179.4 55.4C178.8 55.7 178.3 56.2 177.9 56.8C177.6 57.5 177.4 58.3 177.4 59.4C177.4 60.7 177.8 61.7 178.7 62.6C179.5 63.5 180.7 63.9 182.1 63.9H191.3Z" />
        <path d="M210.8 69.5C210.9 67.9 211.3 66.3 211.8 64.9C212.4 63.4 213.3 62.2 214.4 61.1C215.5 59.9761 216.8 59.1 218.5 58.5C220.1 57.8 222 57.4 224.2 57.4H228.6C230.9 57.4 232.8 57.8 234.5 58.5C236.2 59.3 237.6 60.3 238.7 61.5C239.8 62.7 240.6 64.1 241.1 65.7C241.7 67.3 241.967 68.8 241.967 70.4V95.5H220.7C219.1 95.5 217.6 95.2 216.3 94.6C215 93.9 213.9 93.1 213 92.1C212.2 91.1 211.5 89.9 211.1 88.5C210.7 87.1 210.5 85.6 210.5 83.9696C210.5 82.4 210.7 80.9767 211.1 79.6C211.6 78.3 212.2 77.1 213.1 76.2C213.9 75.2 214.98 74.4 216.2 73.9C217.5 73.3 218.971 72.9705 220.6 72.9705H233.4V72.2C233.4 71.3 233.3 70.5 233.1 69.8C232.988 68.955 232.7 68.3 232.3 67.7C231.9 67.2 231.3 66.8 230.5 66.5C229.7 66.1 228.6 65.9 227.3 65.9H225.4C223.4 65.9 222 66.2 221.2 66.8C220.3 67.4 219.7 68.3 219.4 69.5H210.8ZM218.5 83.9696C218.5 85.3 218.7 86.2 219.2 86.9C219.8 87.5 220.4 87.8 221 87.8H233.4V80.2H221C220.4 80.2 219.8 80.5 219.2 81.1C218.7 81.8 218.5 82.7 218.5 83.9696Z" />
        <path d="M265.6 95.5H257.3L245.7 57.4H254L261.4 81.6L268.5 57.4H276.9L265.6 95.5Z" />
        <path d="M280.8 70.9503C280.8 69.1 281.1 67.4 281.8 65.8C282.5 64.1 283.4 62.7 284.6 61.4C285.7 60.2 287.1 59.2 288.6 58.5C290 57.8 291.5 57.4 293 57.4H301.6C303.5 57.4 305.2 57.8 306.7 58.7C308.3 59.5 309.6 60.5 310.6 61.8C311.6 63.1 312.4 64.5 312.9 66.1C313.5 67.6 313.8 69.2 313.8 70.7V80.3H289.6V82.3C289.6 84.1 290.1 85.4 291.1 86.1C292.1 86.9 293.4 87.3 295.1 87.3H312.5V95.6H293.1C291.4 95.6 289.8 95.3 288.3 94.7C286.8 93.9711 285.5 93 284.4 91.9C283.3 90.8 282.4 89.4 281.7 87.8C281.1 86.2 280.8 84.4 280.8 82.5V70.9503ZM289.7 73.2H305.2V72.8C305.2 70.9 304.7 69.3 303.7 68C302.7 66.7 301.3 66.1 299.6 66.1H294.986C294.2 66.1 293.5 66.3 292.8 66.7C292.2 67 291.6 67.5 291.2 68.1C290.7 68.7 290.3 69.4 290 70.3C289.8 71.1 289.7 71.9 289.7 72.8V73.2Z" />
        <path d="M313.2 48.7L312.3 57.9939C312.8 58.4 313.2 58.9 313.6 59.4C314.1 60 314.6 60.7 315 61.4H316.2C316.8 60.3 317.4 59.2 318.2 58.2L318.2 58.2L318.2 58.2C318.8 57.5 319.3 56.9 319.99 56.4L321.2 48.7L313.2 48.7Z" />
        <path d="M345.7 64.9644H330.8C330.2 64.9644 329.6 65.1 329.2 65.3C328.8 65.5 328.4 65.8 328.1 66.2C327.8 66.6 327.6 67.1 327.5 67.6C327.3 68 327.2 68.5 327.2 68.9C327.2 69.9 327.5 70.8 328.1 71.5C328.8 72.3 329.5 72.7 330.4 72.7H338.8C340.6 72.7 342.1 72.9706 343.4 73.6C344.7 74.2 345.8 74.9908 346.7 76C347.6 77.1 348.2 78.3 348.6 79.8C349.1 81.2 349.3 82.8 349.3 84.4V84.6C349.3 86.3 349 87.8 348.5 89.1C347.976 90.5 347.3 91.6 346.3 92.6C345.4 93.5 344.2 94.3 342.9 94.8C341.6 95.4 340.3 95.6 338.8 95.6H320.7V88.2H336.3C337.4 88.2 338.5 87.9 339.4 87.3C340.4 86.6 340.9 85.6 340.993 84.3V84.4C340.993 83.7 340.8 83 340.5 82.5C340.3 82 339.9 81.7 339.5 81.4C339 81 338.5 80.8 338 80.6C337.5 80.5 336.9 80.4 336.3 80.4H329.5C327.4 80.4 325.5 80 324.1 79.3C322.7 78.6 321.6 77.7 320.7 76.6C319.9 75.5 319.4 74.3 319.1 72.9C318.8 71.5 318.6 70.1 318.6 68.6C318.6 67.1 318.8 65.7 319.3 64.3C319.7 62.9 320.4 61.7 321.2 60.6C322.1 59.5 323.2 58.7 324.5 58.1C325.8 57.5 327.3 57.2 328.9 57.2H345.7V64.9644Z" />
        <path d="M168.9 104.2H192.1C193.8 104.2 195.3 104.6 196.8 105.3C198.3 105.993 199.6 106.965 200.7 108.2C201.8 109.5 202.6 110.9 203.2 112.6C203.9 114.1 204.2 115.9 204.2 117.7V141.7C204.2 143.6 203.9 145.4 203.2 146.971C202.6 148.6 201.8 149.989 200.7 151.2C199.6 152.5 198.3 153.5 196.8 154.2C195.3 154.9 193.8 155.2 192.1 155.2H168.9V104.2ZM189.8 145.8C190.6 145.8 191.2 145.6 191.8 145.3C192.4 145 192.958 144.6 193.4 144.1C193.9 143.6 194.3 143.1 194.5 142.4C194.8 141.7 194.9 140.96 194.9 140.2V119.2C194.9 118.5 194.8 117.8 194.5 117.1C194.3 116.4 193.9 115.8 193.4 115.3C192.958 114.8 192.4 114.3 191.8 114C191.2 113.8 190.6 113.6 189.8 113.6H178.2V145.8H189.8Z" />
        <path d="M210.1 130.7C210.1 128.8 210.5 127.1 211.2 125.5C211.9 123.9 212.8 122.4 213.9 121.2C215.1 119.9 216.4 118.9 217.9 118.2C219.4 117.5 220.9 117.1 222.4 117.1H230.9C232.9 117.1 234.6 117.5 236.1 118.4C237.6 119.2 238.9 120.2 239.9 121.5C240.9 122.8 241.7 124.2 242.3 125.8C242.9 127.3 243.2 128.9 243.2 130.4V140H218.9V142C218.9 143.8 219.4 145.1 220.4 145.8C221.4 146.6 222.8 146.971 224.4 146.971H241.8V155.4H222.5C220.8 155.4 219.2 155 217.7 154.4C216.2 153.7 214.9 152.8 213.7 151.6C212.6 150.5 211.7 149.1 211.1 147.5C210.4 145.9 210.1 144.2 210.1 142.3V130.7ZM219 132.9H234.5V132.5C234.5 130.6 234 128.989 233 127.7C232 126.4 230.7 125.8 228.972 125.8H224.3C223.5 125.8 222.8 125.996 222.2 126.4C221.5 126.7 220.966 127.2 220.5 127.8C220.1 128.4 219.7 129.1 219.4 129.986C219.1 130.8 219 131.6 219 132.5V132.9Z" />
        <path d="M275.1 124.5H260.2C259.5 124.5 258.966 124.6 258.5 124.9C258.1 125.1 257.8 125.4 257.5 125.8C257.2 126.2 256.9 126.6 256.8 127.1C256.6 127.6 256.6 128 256.6 128.5C256.6 129.4 256.9 130.3 257.5 131.1C258.1 131.9 258.9 132.2 259.8 132.2H268.2C269.9 132.2 271.4 132.5 272.7 133.1C274.1 133.7 275.2 134.6 276 135.6C276.9 136.6 277.6 137.9 277.971 139.3C278.4 140.8 278.6 142.3 278.6 143.978V144.2C278.6 145.8 278.4 147.3 277.8 148.7C277.3 150 276.6 151.2 275.7 152.1C274.7 153.1 273.6 153.8 272.3 154.4C270.987 154.9 269.6 155.2 268.2 155.2H250.1V147.8H265.6C266.8 147.8 267.8 147.5 268.8 146.8C269.8 146.2 270.3 145.2 270.3 143.9V143.978C270.3 143.2 270.2 142.6 269.9 142.1C269.6 141.6 269.3 141.2 268.8 140.9C268.4 140.6 267.9 140.3 267.3 140.2C266.8 140 266.2 139.9 265.6 139.9H258.9C256.7 139.9 254.9 139.6 253.4 138.9C252 138.2 250.9 137.3 250.1 136.2C249.3 135.1 248.7 133.9 248.4 132.5C248.1 131.1 247.967 129.6 247.967 128.2C247.967 126.7 248.2 125.2 248.6 123.9C249.1 122.5 249.7 121.2 250.6 120.2C251.5 119.1 252.6 118.2 253.9 117.6C255.2 117 256.6 116.7 258.3 116.7H275.1V124.5Z" />
        <path d="M293.2 155.2H284.4V117.1H293.2V155.2ZM293.2 113H284.4V104.2H293.2V113Z" />
        <path d="M330.3 117.1V155.3C330.3 157.3 329.95 159.1 329.4 160.7C328.8 162.3 327.9 163.6 326.9 164.7C325.8 165.9 324.6 166.7 323.1 167.2C321.6 167.8 319.9 168.1 318.1 168.1H300.993V159.8H316.7C318.3 159.8 319.5 159.4 320.5 158.4C321.6 157.5 322.1 156.2 322.1 154.5V154H310.9C309.3 154 307.7 153.7 306.2 153.2C304.8 152.6 303.5 151.7 302.4 150.6C301.3 149.4 300.4 148 299.8 146.4C299.1 144.7 298.8 142.7 298.8 140.5V130.6C298.8 128.4 299.1 126.5 299.8 124.8C300.4 123.1 301.3 121.7 302.4 120.6C303.5 119.4 304.8 118.6 306.2 118C307.7 117.4 309.3 117.1 310.9 117.1H330.3ZM322 125.4H312.8C312.1 125.4 311.4 125.6 310.7 125.9C310.1 126.2 309.5 126.7 309 127.3C308.5 127.8 308.1 128.5 307.8 129.2C307.5 129.9 307.4 130.6 307.4 131.5V139.6C307.4 140.4 307.5 141.2 307.8 141.958C308.1 142.7 308.5 143.4 309 143.9C309.5 144.5 310.1 144.9 310.7 145.3C311.4 145.6 312.1 145.7 312.8 145.7H322V125.4Z" />
        <path d="M351.6 125.6C350.3 125.6 349.2 125.8 348.4 126.2C347.6 126.5 346.96 126.9 346.5 127.4C346.1 127.991 345.7 128.7 345.5 129.5C345.4 130.2 345.3 131 345.3 131.9V155.2H336.6V117.1H345.3V118.1C347.1 117.4 348.9 117.1 350.9 117.1H354.8C357 117.1 358.957 117.5 360.7 118.2C362.3 118.987 363.7 119.985 364.8 121.2C365.99 122.4 366.8 123.8 367.4 125.4C367.985 126.968 368.3 128.5 368.3 130.1V155.2H359.5V131.9C359.5 131 359.5 130.2 359.3 129.5C359.2 128.7 358.9 127.991 358.4 127.4C358 126.9 357.4 126.5 356.6 126.2C355.8 125.8 354.7 125.6 353.4 125.6H351.6Z" />
    </g>
    <path d="M9 106.5L7.4 61.3L10.2 40.8L14.6 37.8L14.5 30.9554L25.9935 16.6L41.5 8.1L46.5 8.4L49.7 3.9L68.3 1.1L88.6 3.4L93.4 7.3L95.5 5.5L116.4 12.1L130.1 28.5L132.4 35.9684L135.1 39.4L140.1 57.5L141 86.3L137.4 108.3L142.9 108.5L146.5 123L139.7 142.9L134.4 152.3L128.4 152.9L119.9 170.5L108.3 185.8L90.5 198.4L67.9 199.6L50.6 188.4L29.9925 166.2L22.8 150.5L16.8 150.9L8.4 143.2L1.5 123.3L4.1 108.9L9 106.5Z" stroke="var(--dr)" stroke-width="1.5" stroke-linecap="round" stroke-linejoin="round"/>
</svg>
