<svg id="logoThin" viewBox="0 0 355 76" fill="none" xmlns="http://www.w3.org/2000/svg">
    <g fill="var(--md50)">
        <path d="M15.6 35.2L23.4 37.6L25.1 39.7L27.9 42.7L28.1 39.9L27.4 37.4L24.3 36.4L15.6 35.2Z" />
        <path d="M45.8 19.8L46.2 29.2L45 32.8L44.3 35.4L44.9 39.1L47.4 44.1L47.5 50.7L44.3 59.9L41 67.6L41.1 70.3L45.4 64.6L48.6 57.9512L50.9 57.7L52.9 54.2L55.4 46.7L54.1 41.3L52 41.2L49.9 44.1L48.9 33.5L49.3 30.6L49.3 24.9996L45.8 19.8Z" />
        <path d="M10.4 26.3L10.8 32.4L9.1 38.1L9.9 48.6L12.5 61.4L18.5 68.2L19.4 71.3L11.6 62.9648L8.9 57L7.3 43.2L6.7 37.8L8.9 32.7L8.3 27.1L12.3 20.6L10.4 26.3Z" />
        <path d="M32.7 37.9L35.2 36.8L44.3 35.4L35.7 37.9L33.7 40.6L33.9616 46.1L36.4 48.6L35.4 52.3L30.9 52.9L28.7 52.8L23.8 51.9L22.9 48.4L24.2 50.6L27.6 49.8L30.4 50.7L32.9 49.8L33.7 47.8L32.2 45L32.1 40.3L32.7 37.9Z" />
        <path d="M20.9 58.1L21.8 57.7L28.1 56.9L29.1 57.4L30.4 57.1L36.3 58.5L37.3 59.1L36.983 59.5L31.4 58.6L29.1 58.8L26.8 58.4L21.7 58.8L20.9 58.1Z" />
        <path d="M24.7 62.2L27.4 64.5L30.9624 64.8L33.3 62.4L31.4 63L26.7 62.7L24.7 62.2Z" />
    </g>
    <g fill="var(--dr)">
        <path d="M82.5 30.5C84 30.5 85.5 30.8 86.8 31.4C88.1 31.9906 89.2 32.8 90.2 33.9C91.2 34.9 91.9 36.1 92.4 37.6C92.9686 38.978 93.2 40.5 93.2 42.2C93.2 43.8 92.9867 45.3 92.5 46.7C92 48.1 91.3 49.3 90.4 50.3C89.5 51.3 88.4 52.1 87.2 52.6C85.9633 53.2 84.6 53.5 83.1 53.5H66.2V46.7H81.1C81.8 46.7 82.5 46.6 83.2 46.4C83.9 46.2 84.4 45.9 84.9 45.6C85.4 45.2 85.8 44.7 86.1 44.2C86.3 43.7 86.5 43 86.5 42.2C86.5 40.8 86 39.7 85.1 38.9C84.2 38.1 83 37.7 81.6 37.7H77.2C75.4 37.7 73.7 37.5 72.2 37.1C70.6 36.7 69.4 36.1 68.3 35.2C67.3 34.4 66.4 33.2 65.9 31.8C65.3 30.5 64.9832 28.8 64.9832 26.9C64.9832 25.5 65.2 24.2 65.7 22.9707C66.2 21.7 66.8 20.6 67.7 19.6C68.5 18.7 69.5 17.9 70.7 17.3C71.9 16.7 73.2 16.4 74.7 16.4H89.974V23.7H77.5C76.8 23.7 76.1 23.7 75.5 23.8C74.9 23.9 74.3 24.1 73.9 24.3C73.4 24.5 73 24.9 72.8 25.4C72.5 25.8 72.4 26.5 72.4 27.3C72.4 28.2 72.7 28.9598 73.3 29.6C73.9 30.2 74.8 30.5 75.8 30.5H82.5Z" />
        <path d="M96.7 34.6C96.8 33.4 97 32.3 97.4 31.2C97.9 30.2 98.5 29.3 99.3 28.5C100.1 27.7 101.1 27 102.3 26.6C103.5 26.1 104.9 25.8 106.4 25.8H109.7C111.3 25.8 112.7 26.1 113.9 26.6C115.2 27.2 116.2 27.9 116.979 28.8C117.8 29.7 118.4 30.7 118.8 31.8C119.2 32.9707 119.4 34.1 119.4 35.3V53.5H103.9C102.7 53.5 101.6 53.3 100.7 52.9C99.8 52.4 98.9569 51.8 98.3 51.1C97.7 50.3 97.2 49.4 96.9 48.4C96.6 47.4 96.5 46.3 96.5 45.1C96.5 44 96.6 42.9526 96.9 41.9725C97.3 40.9925 97.7 40.2 98.4 39.5C98.9752 38.7 99.7 38.2 100.6 37.8C101.6 37.3 102.6 37.1 103.8 37.1H113.1V36.6C113.1 35.9 113.1 35.3 112.95 34.8C112.8 34.2 112.6 33.7 112.4 33.3C112.1 32.9 111.6 32.6 111.1 32.4C110.5 32.1 109.7 32 108.7 32H107.3C105.9 32 104.9 32.2 104.2 32.7C103.6 33.1 103.2 33.7 102.986 34.6H96.7ZM102.3 45.1C102.3 46.1 102.5 46.8 102.8 47.3C103.2 47.7 103.7 47.9 104.1 47.9H113.1V42.4H104.1C103.7 42.4 103.2 42.6 102.8 43.1C102.5 43.5 102.3 44.2 102.3 45.1Z" />
        <path d="M136.6 53.5H130.5L122.1 25.8H128.2L133.5 43.4L138.7 25.8H144.8L136.6 53.5Z" />
        <path d="M147.6 35.7C147.6 34.3 147.9 33.1 148.4 31.9C148.9 30.7 149.6 29.6 150.4 28.7C151.2 27.8 152.2 27.1 153.3 26.6C154.4 26.1 155.5 25.8 156.5 25.8H162.7C164.2 25.8 165.4 26.1 166.5 26.7C167.6 27.3 168.6 28.1 169.3 29C170.1 29.9 170.6 30.9562 171 32.1C171.5 33.2 171.7 34.4 171.7 35.4V42.5H154V43.9C154 45.2 154.4 46.2 155.1 46.7C155.9 47.3 156.8 47.5 158 47.5H170.7V53.6H156.6C155.4 53.6 154.2 53.4 153.1 52.9C152 52.4 151.1 51.7 150.2 50.9C149.4 50.1 148.8 49.1 148.3 47.9C147.8 46.7 147.6 45.5 147.6 44.1V35.7ZM154.1 37.3H165.4V37C165.4 35.6 164.997 34.4 164.3 33.5C163.5 32.6 162.6 32.1 161.3 32.1H157.955C157.4 32.1 156.8 32.3 156.4 32.6C155.9 32.8 155.5 33.2 155.2 33.6C154.9 34 154.6 34.5 154.4 35.2C154.2 35.7 154.1 36.4 154.1 37V37.3Z" />
        <path d="M171.2 19.4L170.6 26.2C170.9 26.5 171.2 26.9 171.5 27.2C171.9 27.7 172.2 28.2 172.5 28.7H173.4C173.8 27.9 174.3 27.1 174.9 26.4L174.9 26.4L174.9 26.3C175.2 25.9 175.7 25.4 176.1 25.1L177 19.4L171.2 19.4Z" />
        <path d="M194.9 31.3H184C183.6 31.3 183.2 31.4 182.8 31.6C182.5 31.7 182.3 31.9 182.1 32.2C181.8 32.5 181.7 32.8 181.6 33.2C181.5 33.5 181.4 33.9 181.4 34.2C181.4 34.9 181.6 35.5 182.1 36.1C182.5 36.6 183.1 36.9 183.8 36.9H189.9C191.1 36.9 192.2 37.1 193.2 37.6C194.2 37.998 194.953 38.6 195.6 39.4C196.2 40.1 196.7 41 196.985 42.1C197.3 43.1 197.5 44.3 197.5 45.5V45.6C197.5 46.8 197.3 47.9 196.9 48.9C196.5 49.9 195.987 50.7 195.3 51.4C194.6 52.1 193.8 52.6 192.8 53C191.9 53.4 190.9 53.6 189.9 53.6H176.7V48.2H188C188.8 48.2 189.6 47.998 190.3 47.5C191 47.1 191.4 46.3 191.4 45.4V45.5C191.4 44.9 191.3 44.5 191.1 44.1C190.9 43.7 190.7 43.4 190.3 43.2C190 42.9707 189.7 42.8 189.3 42.7C188.9 42.6 188.4 42.5 188 42.5H183.1C181.5 42.5 180.2 42.3 179.1 41.8C178.1 41.2 177.3 40.6 176.7 39.8C176.1 38.9962 175.7 38.1 175.5 37.1C175.3 36.1 175.2 35 175.2 33.9689C175.2 32.9 175.3 31.8 175.6 30.8C175.969 29.8 176.4 28.9 177.1 28.1C177.7 27.3 178.5 26.7 179.5 26.3C180.4 25.9 181.5 25.6 182.7 25.6H194.9V31.3Z" />
        <path d="M209.5 16.4H226.5C227.7 16.4 228.8 16.7 229.8 17.2C230.9 17.7 231.9 18.4 232.7 19.3C233.5 20.2 234.1 21.3 234.5 22.5C234.993 23.6 235.2 24.9 235.2 26.2V43.7C235.2 45.1 234.993 46.4 234.5 47.5C234.1 48.7 233.5 49.7 232.7 50.6C231.9 51.5 230.9 52.2 229.8 52.8C228.8 53.3 227.7 53.5 226.5 53.5H209.5V16.4ZM224.8 46.7C225.3 46.7 225.8 46.5 226.2 46.3C226.7 46.1 227.1 45.8 227.4 45.5C227.8 45.1 228 44.7 228.2 44.2C228.4 43.7 228.5 43.2 228.5 42.6V27.3C228.5 26.8 228.4 26.3 228.2 25.8C228 25.3 227.8 24.9 227.4 24.5C227.1 24.1 226.7 23.8 226.2 23.6C225.8 23.4 225.3 23.2 224.8 23.2H216.3V46.7H224.8Z" />
        <path d="M239.5 35.7C239.5 34.3 239.8 33.1 240.3 31.9C240.8 30.7 241.5 29.6 242.3 28.7C243.2 27.8 244.1 27.1 245.2 26.6C246.3 26.1 247.4 25.8 248.5 25.8H254.7C256.1 25.8 257.4 26.1 258.4 26.7C259.6 27.3 260.5 28.1 261.2 29C261.979 29.9 262.6 30.9562 262.959 32.1C263.4 33.2 263.6 34.4 263.6 35.4V42.5H245.972V43.9C245.972 45.2 246.3 46.2 247.1 46.7C247.8 47.3 248.7 47.5 249.9 47.5H262.6V53.6H248.5C247.3 53.6 246.1 53.4 245.1 52.9C243.957 52.4 242.995 51.7 242.2 50.9C241.4 50.1 240.7 49.1 240.3 47.9C239.8 46.7 239.5 45.5 239.5 44.1V35.7ZM246 37.3H257.3V37C257.3 35.6 256.9 34.4 256.2 33.5C255.5 32.6 254.5 32.1 253.3 32.1H249.9C249.3 32.1 248.8 32.3 248.3 32.6C247.8 32.8 247.4 33.2 247.1 33.6C246.8 34 246.5 34.5 246.3 35.2C246.1 35.7 246 36.4 246 37V37.3Z" />
        <path d="M286.8 31.2H275.964C275.5 31.2 275.1 31.3 274.8 31.5C274.5 31.6 274.2 31.8 274 32.1C273.8 32.4 273.6 32.7 273.5 33.1C273.4 33.4 273.4 33.8 273.4 34.1C273.4 34.8 273.6 35.4 274 35.9834C274.5 36.5 275 36.8 275.7 36.8H281.8C283.1 36.8 284.2 37 285.1 37.5C286.1 37.9 286.9 38.5 287.5 39.3C288.2 40 288.6 40.9 288.9 41.9726C289.2 43 289.4 44.2 289.4 45.3V45.5C289.4 46.7 289.2 47.8 288.8 48.8C288.5 49.8 287.9 50.6 287.2 51.3C286.5 51.9726 285.7 52.5 284.8 52.9C283.8 53.3 282.8 53.5 281.8 53.5H268.6V48.1H279.9C280.8 48.1 281.5 47.9 282.2 47.4C282.951 46.9 283.3 46.2 283.4 45.3V45.3C283.4 44.8 283.3 44.4 283.1 43.9871C282.9 43.6 282.6 43.3 282.3 43.1C281.953 42.9 281.6 42.7 281.2 42.6C280.8 42.5 280.4 42.4 279.9 42.4H275C273.4 42.4 272.1 42.2 271.1 41.6C270.1 41.1 269.2 40.5 268.6 39.7C268 38.9 267.6 37.9799 267.4 36.9635C267.2 35.9 267.1 34.9 267.1 33.9C267.1 32.8 267.3 31.7 267.6 30.7C267.9 29.7 268.4 28.8 268.995 28C269.6 27.2 270.4 26.6 271.4 26.2C272.3 25.7 273.4 25.5 274.6 25.5H286.8V31.2Z" />
        <path d="M300 53.5H293.6V25.8H300V53.5ZM300 22.8H293.6V16.4H300V22.8Z" />
        <path d="M326.963 25.8V53.6C326.963 55.1 326.7 56.4 326.3 57.5C325.9 58.7 325.3 59.6 324.5 60.4C323.8 61.3 322.8 61.9 321.7 62.3C320.6 62.7 319.5 62.9 318.1 62.9H305.7V56.9H317.1C318.2 56.9 319.2 56.5 319.9 55.9C320.6 55.2 321 54.2 321 52.9707V52.6H312.9C311.7 52.6 310.6 52.4 309.5 52.1C308.4 51.6 307.5 50.9744 306.7 50.1C305.9 49.3 305.3 48.3 304.8 47.1C304.3 45.9 304.1 44.4 304.1 42.8V35.6C304.1 34 304.3 32.6 304.8 31.4C305.3 30.2 305.9 29.1 306.7 28.3C307.5 27.5 308.4 26.9 309.5 26.5C310.6 26 311.7 25.8 312.9 25.8H326.963ZM320.974 31.8H314.3C313.7 31.8 313.2 31.9725 312.8 32.2C312.3 32.4 311.9 32.8 311.5 33.2C311.1 33.6 310.8 34.1 310.6 34.6C310.4 35.1 310.3 35.6 310.3 36.3V42.1C310.3 42.8 310.4 43.3 310.6 43.9C310.8 44.4 311.1 44.9 311.5 45.3C311.9 45.7 312.3 46 312.8 46.3C313.2 46.5 313.7 46.6 314.3 46.6H320.974V31.8Z" />
        <path d="M342.5 32C341.6 32 340.8 32.1 340.2 32.4C339.6 32.6 339.1 32.9 338.8 33.3C338.5 33.7 338.2 34.2 338.1 34.8C337.98 35.3 337.9 35.9 337.9 36.6V53.5H331.6V25.8H337.9V26.5C339.2 26 340.6 25.8 342 25.8H344.8C346.4 25.8 347.9 26.1 349.1 26.6C350.3 27.2 351.3 27.9 352.1 28.8C352.97 29.7 353.6 30.7 353.987 31.8C354.4 32.9707 354.6 34.1 354.6 35.3V53.5H348.3V36.6C348.3 35.9 348.2 35.3 348.1 34.8C347.998 34.2 347.8 33.7 347.5 33.3C347.2 32.9 346.7 32.6 346.1 32.4C345.6 32.1 344.8 32 343.8 32H342.5Z" />
        <path d="M39.4 36.8L42.4 37.1L44.6 38.6L42.1 37.9594L40.9662 37.9L40.7 39.1L39.3 39.6L37.9 39L37.7 37.9L35.9673 38.2L34.9906 38.8L35.7 37.9L39.4 36.8Z" />
        <path d="M20.6 36.7L23.4 37.6L24.2 38.7L23.2 37.9676L22.1 37.8L21.9817 38.8L20.4 39.4L18.8 38.8L18.6 37.7L17.4 37.7L15.6 38.3L17.2 37.2L20.6 36.7Z" />
        <path d="M11.8 36.9757L15.3 32.5L24.9 34.5L27.4 37.4L24.3 36.4L15.6 35.2L11.8 36.9757Z" />
        <path d="M18.5 68.2L19.4 71.3L25.9 75.5L34.4 75.1L41.1 70.3L41 67.6L33.9534 70.7L24.8 71.1L18.5 68.2Z" />
        <path d="M32.7 37.9L34.2 35.1L45 32.8L47.6 37.6L44.3 35.4L35.2 36.8L32.7 37.9Z" />
        <path d="M49.9 44.1L48.9 33.5L49.3 30.6L49.3 25L44.8 18.2L43.6 12.2L39.9 6.9L42.4 12.1L43.4 17.9L39.8 17L36.972 9.8L28.8 5.3L35.6 9.9L38.5 17.3L36.3 17.1L31 12.6L20.8 12.3L30.2 13.4L34.7 17.6L30.1 18.1L24.9527 20.1L20.9 22.9L12.3 20.6L8.3 27.1L8.9 32.7L6.7 37.8L7.3 43.2L3.7 40.5L3.1 23.5L4.2 15.8L5.8 14.6L5.8 12.1L10.1 6.7L15.9 3.5L17.8 3.6L19 1.9L26 0.8L33.7 1.7L35.5 3.2L36.3 2.5L44.1 4.98552L49.3 11.2L50.1 13.966L51.1 15.3L53.1 22.1L53.4 32.9L52 41.2L49.9 44.1Z" />
        <path d="M25.1 51.1L26.9 50.9533L28.2 51.5L26.1 51.7L25.1 51.1Z" />
        <path d="M31.6 51.8L33.1 51.1L34.8 51.4L33.2 52.1L31.6 51.8Z" />
        <path d="M39.4 36.8L42.4 37.1L44.6 38.6L42.1 37.9594L40.9662 37.9L40.7 39.1L39.3 39.6L37.9 39L37.7 37.9L35.9673 38.2L34.9906 38.8L35.7 37.9L39.4 36.8Z" />
        <path d="M20.6 36.7L23.4 37.6L24.2 38.7L23.2 37.9676L22.1 37.8L21.9817 38.8L20.4 39.4L18.8 38.8L18.6 37.7L17.4 37.7L15.6 38.3L17.2 37.2L20.6 36.7Z" />
        <path d="M19.3 58.2L19.8 56.2L27.1 54L29.4 54.7L31.6 54.6L38.9 56.9988L39.1 59L37.9 58.1L31.4 55.8L29.1 55.9695L27.4 55.4L20.3 57.5L19.3 58.2Z" />
    </g>
    <path d="M3.7 40.5L3.1 23.5L4.2 15.8L5.8 14.6L5.8 12.1L10.1 6.7L15.9 3.5L17.8 3.6L19 1.9L26 0.8L33.7 1.7L35.5 3.2L36.3 2.5L44.1 4.98588L49.3 11.2L50.1 13.9664L51.1 15.3L53.1 22.1L53.4 32.9L52 41.2L54.1 41.3L55.4 46.7L52.9 54.2L50.9 57.7L48.6 57.9516L45.4 64.6L41.1 70.3L34.4 75.1L25.9 75.5L19.4 71.3L11.6 62.9652L8.9 57L6.7 57.2L3.5 54.3L0.9 46.8L1.9 41.4L3.7 40.5Z" stroke="var(--dr)" stroke-width="0.5" stroke-linecap="round" stroke-linejoin="round"/>
</svg>
