<svg role="img" aria-label="Logo - Save's Desing" id="logoThick" viewBox="0 0 652 354" fill="none" stroke-width="2" stroke-linejoin="round" stroke-linecap="round" xmlns="http://www.w3.org/2000/svg">
    <g id="LogoLtrs">
        <g class="dark" fill="var(--dr)"  stroke="var(--dr)">
            <path d="M315 73L298 81L292 98L300 119L304 122L322 128H338L342 130L344 136L340 144L331 146H295V163L299 167H340L357 159L364 139L357 119L353 115L334 107H318L315 106L314 103L317 96L326 94H356V77L353 73H315Z"/>
            <path d="M389 96L375 102L369 117L373 121H388L391 116L397 115H404L407 115L408 117L409 123H386L373 129L368 143L373 157L377 161L390 167H428V122L422 107L418 103L404 96H389ZM391 140H409V149H387L386 146L387 141L391 140Z"/>
            <path d="M430 96L451 163L455 167H469L489 99L485 96H471L459 134L449 99L445 96H430Z"/>
            <path d="M514 96L499 103L492 120V140L498 156L502 160L518 167H552V152L548 148H517L513 147L512 143V140H554V123L548 107L545 103L529 96H514ZM521 115H529L533 117L535 124H513L514 118L521 115Z"/>
            <path d="M549 80L548 97L553 103L556 107H558L565 98L567 84L563 80H549Z"/>
            <path d="M581 95L567 101L563 115L566 130L570 133L586 140H598L601 141L602 143L599 148L594 150H566V163L570 167H602L615 161L621 147L616 132L612 129L598 123H584L582 122L582 120L583 115L588 113H614V99L610 95H581Z"/>
            <path d="M389 201L374 208L368 225V245L374 262L378 266L393 272H427V257L424 254H393L388 252L387 249V245H430V228L424 213L420 209L404 201H389ZM396 220H405L409 222L411 229H388L390 224L396 220Z"/>
            <path d="M453 200L439 206L434 220L438 235L442 238L457 245H469L473 246L474 248L471 253L465 255H438V268L442 272H474L487 266L492 252L488 237L484 234L470 228H455L454 227L453 225L455 220L460 218H486V204L482 200H453Z"/>
            <path d="M295 178V268L299 272H340L355 265L361 248V206L355 189L351 185L336 178H295ZM315 199H336L339 201L341 205V242L338 249L332 251H315L315 199Z"/>
            <path d="M499 178V194L502 197H518V182L514 178H499ZM499 201V268L502 272H518V205L514 201H499Z"/>
            <path d="M545 201L530 207L524 225V242L530 260L534 264L549 270H564L562 274L556 276H528V291L532 295H562L577 289L583 272V205L579 201L545 201ZM552 219H565V251H549L545 249L543 244V230L546 223L552 219Z"/>
            <path d="M591 201V268L594 272H610V231L612 223L617 220H628L629 221L631 227V268L635 272H650V228L644 212L640 208L628 201H612L607 202L606 201H591Z"/>
        </g>
        <g class="mdl" fill="var(--md50)" stroke="var(--md50)">
            <path d="M530 260L534 264L549 270H564L565 266H545L530 260Z"/>
            <path d="M353 73L356 77V94H326L317 96L314 103L315 106L312 105L310 99L313 92L322 91H353V73Z"/>
            <path d="M300 119L304 122L322 128H338L342 130L341 127L334 125H318L300 119Z"/>
            <path d="M353 115L357 119L364 139L357 159L340 167H299L295 163H336L354 155L360 136L353 115Z"/>
            <path d="M418 103L422 107L428 122V167H390L377 161L373 157L386 163H424V119L418 103Z"/>
            <path d="M409 136H387L384 137L382 143L384 148L387 149L386 146L387 141L391 140H409V136Z"/>
            <path d="M369 117L373 121H388L391 116L397 115H404L407 115L407 114L404 112L400 111H393L387 112L384 117H369"/>
            <path d="M445 96L458 138L459 134L449 99L445 96Z"/>
            <path d="M485 96L489 99L469 167H455L451 163H465L485 96Z"/>
            <path d="M545 103L548 107L554 123V140H512V143L513 147L510 146L508 140V136H550V119L545 103"/>
            <path d="M533 114L525 111H517L510 115L508 124H513L514 118L521 115H529L533 117L533 114Z"/>
            <path d="M548 148L552 152V167H518L502 160L498 156L514 163H548V148Z"/>
            <path d="M563 80L567 84L565 98L558 107L556 107L553 103H555L561 94L563 80Z"/>
            <path d="M610 95L614 99V113H588L583 115L582 120L582 122L579 121L578 116L579 111L584 109H610V95Z"/>
            <path d="M566 130L570 133L586 140H598L601 141L599 138L594 136H582L566 130Z"/>
            <path d="M612 129L616 132L621 147L615 161L602 167H570L566 163H598L611 158L617 143L612 129Z"/>
            <path d="M420 209L424 213L430 228V245H387V249L388 252L386 252L383 245V241H426V224L420 209"/>
            <path d="M408 220L401 216H393L386 220L383 229H388L390 224L396 220H405L409 222L408 220"/>
            <path d="M424 254L427 257V272H393L378 266L374 262L389 268H424V254Z"/>
            <path d="M482 200L486 204V218H460L455 220L453 225L454 227L451 226L450 221L451 216L456 214H482V200Z"/>
            <path d="M438 235L442 238L457 245H469L473 246L471 243L465 241H454L438 235Z"/>
            <path d="M484 234L488 237L492 252L487 266L474 272H442L438 268H470L483 263L488 248L484 234Z"/>
            <path d="M295 268L299 272H340L355 265L361 248V206L355 189L351 185L357 202V244L351 261L336 268H295Z"/>
            <path d="M311 251V195H332L338 198L339 201L336 199H315L315 251H311Z"/>
            <path d="M514 178L518 182V197H502L499 194H514V178Z"/>
            <path d="M514 201L518 205V272H502L499 268H514V201Z"/>
            <path d="M579 201L583 205V272L577 289L562 295H532L528 291H558L573 285L579 268V201Z"/>
            <path d="M565 216H549L542 219L539 226V241L542 248L545 249L543 244V230L546 223L552 219H565V216Z"/>
            <path d="M591 268L594 272H610V231L612 223L617 220H628L629 221L629 219L624 216H613L608 219L606 227V268H591Z"/>
            <path d="M606 201L607 202L606 203V201Z"/>
            <path d="M640 208L644 212L650 228V272H635L631 268H646V224L640 208Z"/>
        </g>
        <g class="outline" stroke="var(--dr)">
            <path d="M315 73L298 81L292 98L300 119L304 122L322 128H338L342 130L344 136L340 144L331 146H295V163L299 167H340L357 159L364 139L357 119L353 115L334 107H318L315 106L314 103L317 96L326 94H356V77L353 73H315Z"/>
            <path d="M389 96L375 102L369 117L373 121H388L391 116L397 115H404L407 115L408 117L409 123H386L373 129L368 143L373 157L377 161L390 167H428V122L422 107L418 103L404 96H389ZM391 140H409V149H387L386 146L387 141L391 140Z"/>
            <path d="M430 96L451 163L455 167H469L489 99L485 96H471L459 134L449 99L445 96H430Z"/>
            <path d="M514 96L499 103L492 120V140L498 156L502 160L518 167H552V152L548 148H517L513 147L512 143V140H554V123L548 107L545 103L529 96H514ZM521 115H529L533 117L535 124H513L514 118L521 115Z"/>
            <path d="M549 80L548 97L553 103L556 107H558L565 98L567 84L563 80H549Z"/>
            <path d="M581 95L567 101L563 115L566 130L570 133L586 140H598L601 141L602 143L599 148L594 150H566V163L570 167H602L615 161L621 147L616 132L612 129L598 123H584L582 122L582 120L583 115L588 113H614V99L610 95H581Z"/>
            <path d="M389 201L374 208L368 225V245L374 262L378 266L393 272H427V257L424 254H393L388 252L387 249V245H430V228L424 213L420 209L404 201H389ZM396 220H405L409 222L411 229H388L390 224L396 220Z"/>
            <path d="M453 200L439 206L434 220L438 235L442 238L457 245H469L473 246L474 248L471 253L465 255H438V268L442 272H474L487 266L492 252L488 237L484 234L470 228H455L454 227L453 225L455 220L460 218H486V204L482 200H453Z"/>
            <path d="M295 178V268L299 272H340L355 265L361 248V206L355 189L351 185L336 178H295ZM315 199H336L339 201L341 205V242L338 249L332 251H315L315 199Z"/>
            <path d="M499 178V194L502 197H518V182L514 178H499ZM499 201V268L502 272H518V205L514 201H499Z"/>
            <path d="M545 201L530 207L524 225V242L530 260L534 264L549 270H564L562 274L556 276H528V291L532 295H562L577 289L583 272V205L579 201L545 201ZM552 219H565V251H549L545 249L543 244V230L546 223L552 219Z"/>
            <path d="M591 201V268L594 272H610V231L612 223L617 220H628L629 221L631 227V268L635 272H650V228L644 212L640 208L628 201H612L607 202L606 201H591Z"/>
        </g>
    </g>
    <g id="LgFace">
        <g fill="var(--md50)">
            <path id="LeyeShLg" d="M71 163L107 175L115 184L128 198L129 185L126 174L111 169L71 163Z"/>
            <path id="RshadowLg" d="M212 91L214 135L208 152L205 164L208 181L219 205L220 236L205 279L190 315L190 328L210 301L225 270L236 269L245 252L257 217L251 192L241 191L231 205L226 155L229 142L229 115L212 91Z"/>
            <path id="LshadowLg" d="M46 122L48 150L40 177L44 226L56 286L84 318L88 332L52 293L39 266L32 201L29 176L39 151L36 125L55 95L46 122Z"/>
            <path id="noseLg" d="M151 176L162 171L205 164L165 176L156 189L157 214L168 226L163 243L142 246L132 246L109 241L105 225L111 236L127 232L140 236L152 232L156 222L148 209L148 187L151 176Z"/>
            <path id="TLipLg" d="M95 271L100 269L129 265L134 267L140 266L167 273L172 275L171 277L145 273L134 274L123 272L99 274L95 271Z"/>
            <path id="BLipLg" d="M113 290L126 301L143 302L153 291L144 294L123 292L113 290Z"/>
        </g>
        <path d="M15 188L12 108L17 72L25 67L25 55L45 30L72 15L81 15L87 7L119 2L155 6L164 13L167 10L204 22L228 51L232 64L237 70L246 102L248 152L241 191L251 192L257 217L245 252L236 269L225 270L210 301L190 328L159 350L119 352L88 332L52 293L39 266L29 266L14 253L2 218L6 192L15 188Z"  stroke="var(--dr)"/>
        <g fill="var(--dr)">
            <path id="ReyeLg" d="M182 171L196 172L207 179L195 176L189 176L188 181L182 184L175 181L174 176L166 177L161 180L165 176L182 171Z"/>
            <path id="LeyeLg" d="M94 171L107 175L111 179L106 176L101 176L100 180L93 183L85 180L85 175L79 175L71 178L78 173L94 171Z"/>
            <path id="LeyeBLg" d="M53 172L69 150L114 160L126 174L111 169L71 163L53 172Z"/>
            <path id="beardLg" d="M84 318L88 332L119 352L159 350L190 328L190 315L157 330L114 331L84 318Z"/>
            <path id="ReyeBLg" d="M151 176L158 163L208 152L221 174L205 164L162 171L151 176Z"/>
            <path id="hairLg" d="M231 205L226 155L229 142L229 115L208 84L202 55L185 31L196 55L201 82L184 78L171 44L132 23L164 45L178 79L167 78L143 57L95 56L139 61L160 81L139 83L114 93L95 106L55 95L36 125L39 151L29 176L32 201L15 188L12 108L17 72L25 67L25 55L45 30L72 15L81 15L87 7L119 2L155 6L164 13L167 10L204 22L228 51L232 64L237 70L246 102L248 152L241 191L231 205Z"/>
            <path id="LnoseDLg" d="M115 238L123 237L130 240L120 241L115 238Z"/>
            <path id="RnoseDLg" d="M146 241L152 238L161 239L153 242L146 241Z"/>
            <path id="LeyeLg" d="M94 171L107 175L111 179L106 176L101 176L100 180L93 183L85 180L85 175L79 175L71 178L78 173L94 171Z"/>
            <path id="mustchLg" d="M88 271L90 262L125 251L135 255L145 254L180 265L180 275L175 271L145 260L134 261L126 258L93 268L88 271Z"/>
        </g>
    </g>
</svg>
