<svg role="img" aria-label="Logo - Save's Design" id="logoThin" viewBox="0 0 1857 355" fill="none" xmlns="http://www.w3.org/2000/svg">
    <g id="LgFace">
        <g fill="var(--md50)">
            <path id="LeyeShLg" d="M71 163L108 175L115 184L129 198L130 185L126 174L112 169L71 163Z"/>
            <path id="RshadowLg" d="M213 91L215 135L209 152L206 164L208 181L220 205L221 236L205 279L190 315L190 328L211 301L226 270L237 269L246 252L258 217L252 191L242 191L232 205L227 155L229 142L229 115L213 91Z"/>
            <path id="LshadowLg" d="M47 121L49 150L41 176L45 226L57 286L85 318L89 332L52 293L40 265L32 201L30 175L40 151L37 125L55 95L47 121Z"/>
            <path id="noseLg" d="M151 176L163 171L206 164L165 176L156 188L157 214L168 226L164 243L143 246L132 246L110 241L105 225L111 235L127 232L141 236L152 232L156 222L149 209L149 187L151 176Z"/>
            <path id="TLipLg" d="M96 270L100 269L129 265L134 267L141 266L168 272L173 275L171 277L145 273L134 274L124 272L100 274L96 270Z"/>
            <path id="BLipLg" d="M114 290L126 300L143 302L154 291L145 293L123 292L114 290Z"/>
        </g>
        <g fill="var(--dr)">
            <path id="ReyeLg" d="M183 171L197 172L207 179L195 176L190 176L189 181L182 184L176 181L175 176L167 177L162 180L165 176L183 171Z"/>
            <path id="LeyeLg" d="M94 170L108 175L111 179L107 176L102 176L101 180L94 183L86 180L85 175L79 175L71 178L79 173L94 170Z"/>
            <path id="LeyeBLg" d="M54 171L70 150L115 160L126 174L112 169L71 163L54 171Z"/>
            <path id="beardLg" d="M85 318L89 332L119 352L159 350L190 328L190 315L157 329L114 331L85 318Z"/>
            <path id="ReyeBLg" d="M151 176L158 162L209 152L221 174L206 164L163 171L151 176Z"/>
            <path id="hairLg" d="M232 205L227 155L229 142L229 115L208 83L202 55L185 30L197 55L202 82L185 78L171 44L133 23L165 44L179 79L168 78L143 57L96 56L139 61L161 81L139 83L115 93L96 106L55 95L37 125L40 151L30 175L32 201L16 188L13 108L18 72L25 67L25 55L45 30L73 14L82 15L87 7L120 2L156 6L164 13L168 10L205 22L229 51L233 64L238 70L247 102L248 152L242 191L232 205Z"/>
            <path id="LnoseDLg" d="M115 238L124 237L130 240L120 240L115 238Z"/>
            <path id="RnoseDLg" d="M146 241L153 238L161 239L154 242L146 241Z"/>
            <path id="mustchLg" d="M88 271L91 262L125 251L136 255L146 254L180 265L181 275L176 271L145 260L135 260L126 258L93 268L88 271Z"/>
        </g>
        <path stroke-width="4" stroke="var(--dr)" d="M16 188L13 108L18 72L25 67L25 55L45 30L73 14L82 15L87 7L120 2L156 6L164 13L168 10L205 22L229 51L233 64L238 70L247 102L248 152L242 191L252 192L258 217L246 252L237 269L226 270L211 301L190 328L159 350L119 352L89 332L52 293L40 265L29 266L14 253L2 218L7 192L16 188Z"/>
    </g>
    <g id="LogoLtrs" class="dark" fill="var(--dr)" stroke="var(--dr)" stroke-width="4">
        <path d="M367 71L330 88L315 126L333 170L373 183H408L422 190L429 207L421 225L401 230H322V267H411L450 250L465 207L449 163L408 145H373L359 140L355 128L362 112L382 109H447V71H367Z"/>
        <path d="M877 87L873 122L884 136H888L903 116L908 87L877 87Z"/>
        <path d="M946 119L916 133L906 163L914 194L948 209H974L986 212L992 224L986 235L974 239H914V267H984L1012 255L1024 224L1014 192L984 179H951L942 175L939 165L942 154L953 149H1010V119L946 119Z"/>
        <path d="M526 120L497 134L483 167H516L523 156L535 153H551L566 160L569 168L570 180H521L492 192L482 222L491 254L521 267H603V170L590 136L560 120H526ZM522 208H570V237H522L515 234L512 222L515 211L522 208Z"/>
        <path d="M617 120L662 267H694L737 120H705L677 213L649 120H617Z"/>
        <path d="M799 120L767 136L752 172V217L766 253L800 267H874V235H807L792 231L786 216V208H879V171L867 137L832 120H799ZM807 154H825L840 161L846 181H786L792 161L807 154Z"/>
        <path d="M1088 70V266H1177L1210 251L1223 214V122L1210 85L1177 70H1088ZM1124 106H1168L1182 113L1184 119L1188 128V208L1182 224L1168 230H1132H1124V106Z"/>
        <path d="M1532 70V104H1566V70H1532ZM1532 120V266H1566V120H1532Z"/>
        <path d="M1431 118L1402 131L1392 162L1400 193L1434 207H1460L1472 211L1478 223L1472 234L1460 238H1400V266H1469L1498 254L1510 223L1500 191L1469 178H1437L1428 173L1425 163L1428 153L1439 148H1496V118L1431 118Z"/>
        <path d="M1293 120L1261 135L1246 172V216L1260 252L1260 252L1294 267H1368V234L1301 234L1286 230L1280 215V208H1373V171L1361 137L1326 120L1293 120ZM1301 153H1319L1334 161L1336 165L1340 180H1291V180H1280L1286 161L1301 153Z"/>
        <path d="M1634 120L1601 133L1587 171V210L1601 248L1601 248L1634 262H1677L1671 278L1656 284H1596V316L1596 316H1662L1695 303L1708 266V120L1634 120ZM1641 152H1677V160V160V230H1641L1626 223L1620 206V175L1626 159L1641 152Z"/>
        <path d="M1732 120V266H1766V177L1771 159L1782 152H1805L1816 159L1821 177V266H1854V170L1841 135L1815 120H1779L1766 123L1766 120L1732 120Z"/>
    </g>
</svg>
