<svg viewBox="0 0 244 261" fill="none" xmlns="http://www.w3.org/2000/svg">
    <g fill="var(--md50)">
        <path d="M84.7 92.9L105.4 99.4L109.8 104.8L117.3 112.9L117.987 105.3L116 98.9L107.9 96.1L84.7 92.9Z" />
        <path d="M165.1 51.9L166.1 76.8L162.9 86.4L161.1 93.4L162.6 103.2L169.1 116.7L169.6 134.1L160.9 158.5L152.3 179.2L152.4 186.3L164 170.994L172.5 153.4L178.5 152.8L183.8 143.4L190.6 123.5L187 109L181.6 108.8L175.9 116.4L173.1 88.3L174.4 80.7L174.4 65.8L165.1 51.9Z" />
        <path d="M70.9 69.3L72.1 85.5L67.6 100.5L69.6 128.6L76.6 162.6L92.4 180.6L94.8 188.9L74.1 166.7L66.9 150.965L62.7 114.2L61.1 99.9L66.9992 86.2L65.3 71.3L75.8 54.2L70.9 69.3Z" />
        <path d="M130.1 100.1L136.9 97.2L161.1 93.4L138 100L132.956 107.3L133.5 121.8L139.9 128.5L137.4 138.3L125.3 139.8L119.5 139.8L106.6 137.2L104.1 128.1L107.5 133.957L116.7 131.7L124.2 134.1L130.8 131.7L132.9 126.3L128.8 119L128.7 106.3L130.1 100.1Z" />
        <path d="M98.9 153.8L101.3 152.8L117.8 150.6L120.5 151.9L124.2 151.2L139.7 154.9L142.4 156.5L141.6 157.5L126.8 155.1L120.5 155.8L114.6 154.5L100.9 155.7L98.9 153.8Z" />
        <path d="M109 164.8L116 170.8L125.6 171.7L131.7 165.2L126.6 166.9L114.3 166.1L109 164.8Z" />
    </g>
    <g fill="var(--dr)">
        <path d="M147.984 97.2L155.9 98L161.9 102.1L155.2 100.3L152.2 100.1L151.4 103.2L147.8 104.7L144 103L143.4 100.1L138.9 100.9L136.3 102.6L138 100L147.984 97.2Z" />
        <path d="M97.9 97L105.4 99.4L107.6 102.1L104.8 100.3L102.1 99.9534L101.7 102.5L97.6 104.1L93.2 102.5L92.7 99.5L89.5 99.5L84.7 101.2L89.1 98.3L97.9 97Z" />
        <path d="M74.7 97.6L83.8 85.6L109.3 90.9916L116.1 98.9L107.9 96.1L84.7 92.9L74.7 97.6Z" />
        <path d="M92.4 180.6L94.8 188.9L112 200.1L134.6 198.9L152.4 186.3L152.3 179.2L133.5 187.3L109.2 188.3L92.4 180.6Z" />
        <path d="M130.1 100.1L134.2 92.5L162.9 86.4L169.8 99.2L161.1 93.4L136.9 97.2L130.1 100.1Z" />
        <path d="M175.9 116.4L173.1 88.3L174.4 80.7L174.4 65.8L162.4 47.7L159.1 31.7L149.4 17.6L155.97 31.5L158.7 46.8L149.1 44.6L141.5 25.4L119.7 13.5L137.8 25.6L145.7 45.4L139.6 44.8L125.7 32.9L98.7 32.1L123.4 35.1L135.6 46.1L123.3 47.5L109.6 52.9L98.8 60.3L75.8 54.2L65.3 71.3L66.9992 86.2L61.1 99.9L62.7 114.2L53.2 106.958L51.5 61.8L54.3 41.3L58.8 38.3L58.7 31.5L70.1 17.1L85.6 8.6L90.7 8.9L93.9 4.4L112.4 1.6L132.7 3.9L137.5 7.8L139.6 5.95684L160.5 12.6L174.2 29L176.6 36.5L179.2 39.9L184.3 58L185.2 86.8L181.6 108.8L175.9 116.4Z" />
        <path d="M109.8 135.2L114.7 134.8L118.3 136.4L112.7 136.8L109.8 135.2Z" />
        <path d="M127.3 137.2L131.1 135.2L135.8 135.977L131.6 137.7L127.3 137.2Z" />
        <path d="M147.984 97.2L155.9 98L161.9 102.1L155.2 100.3L152.2 100.1L151.4 103.2L147.8 104.7L144 103L143.4 100.1L138.9 100.9L136.3 102.6L138 100L147.984 97.2Z" />
        <path d="M97.9 97L105.4 99.4L107.6 102.1L104.8 100.3L102.1 99.9534L101.7 102.5L97.6 104.1L93.2 102.5L92.7 99.5L89.5 99.5L84.7 101.2L89.1 98.3L97.9 97Z" />
        <path d="M94.5 154.2L96 148.8L115.4 142.9L121.5 144.8L127.2 144.5L146.5 150.9L147.1 156.2L144.1 153.9L126.7 147.8L120.7 148.1L116.1 146.7L97.3 152.1L94.5 154.2Z" />
        <path d="M15.5 233.1C16.8 233.1 17.9651 233.3 19.1 233.8C20.2 234.3 21.1 234.989 21.9 235.9C22.8 236.7 23.4 237.8 23.8 238.973C24.3 240.2 24.5 241.5 24.5 242.9C24.5 244.2 24.3 245.5 23.9 246.6C23.5 247.8 22.9 248.8 22.1 249.6C21.4 250.5 20.5 251.1 19.4 251.6C18.4 252.1 17.2 252.3 15.9579 252.3H1.8V246.6H14.3C14.9 246.6 15.5 246.5 16 246.4C16.6 246.2 17.1 245.983 17.5 245.7C17.9 245.4 18.2 244.995 18.5 244.5C18.7 244.1 18.8 243.5 18.8 242.9C18.8 241.7 18.4 240.8 17.6 240.1C16.9 239.4 15.9 239.1 14.8 239.1H11.1C9.5 239.1 8.1 238.9 6.8 238.6C5.6 238.3 4.5 237.7 3.6 237C2.7 236.3 2 235.3 1.5 234.2C1.1 233 0.8 231.6 0.8 230C0.8 228.9 1 227.8 1.4 226.7C1.8 225.7 2.3 224.8 3 223.964C3.7 223.1 4.6 222.5 5.6 222C6.6 221.5 7.7 221.3 8.9 221.3H21.8V227.3H11.3C10.7 227.3 10.1 227.4 9.6 227.5C9.1 227.5 8.6 227.7 8.2 227.9C7.9 228.1 7.5 228.4 7.3 228.8C7.1 229.1 7 229.7 7 230.4C7 231.1 7.3 231.8 7.8 232.3C8.3 232.8 9 233.1 9.9 233.1H15.5Z" />
        <path d="M27.4 236.5C27.5 235.5 27.7 234.6 28 233.7C28.4 232.8 28.9 232 29.6 231.4C30.2 230.7 31.1 230.2 32.1 229.8C33.1 229.3 34.2 229.1 35.5 229.1H38.3C39.6 229.1 40.8 229.3 41.8 229.8C42.9 230.3 43.7 230.9 44.4 231.6C45 232.4 45.5 233.2 45.9 234.2C46.2 235.1 46.4 236.1 46.4 237.1V252.3H33.4C32.4 252.3 31.5 252.2 30.7 251.8C29.9 251.4 29.3 250.9 28.7 250.3C28.2 249.6 27.8 248.9 27.5 248.1C27.3 247.2 27.2 246.3 27.2 245.3C27.2 244.4 27.3 243.5 27.6 242.7C27.9 241.8 28.3 241.1 28.8 240.6C29.3 239.961 29.9 239.5 30.7 239.2C31.5 238.8 32.4 238.6 33.3 238.6H41.1V238.2C41.1 237.6 41.1 237.1 41 236.6C40.9 236.2 40.7 235.7 40.5 235.4C40.3 235.1 39.9 234.8 39.4 234.6C38.9 234.4 38.3 234.3 37.4 234.3H36.3C35.1 234.3 34.2 234.5 33.7 234.9C33.2 235.2 32.8 235.7 32.7 236.5H27.4ZM32.1 245.3C32.1 246.1 32.2 246.7 32.5 247.1C32.9 247.5 33.2 247.6 33.6 247.6H41.1V242.987H33.6C33.2 242.987 32.9 243.2 32.5 243.6C32.2 243.976 32.1 244.6 32.1 245.3Z" />
        <path d="M60.8 252.3H55.7L48.7 229.1H53.7L58.2 243.9L62.6 229.1H67.7L60.8 252.3Z" />
        <path d="M70 237.4C70 236.3 70.3 235.2 70.7 234.2C71.1 233.2 71.7 232.3 72.4 231.6C73.1 230.8 73.9 230.2 74.8 229.8C75.7 229.3 76.6 229.1 77.5 229.1H82.7C83.9 229.1 84.9619 229.4 85.9 229.9C86.8 230.4 87.6 231 88.2 231.8C88.8 232.6 89.3 233.4 89.7 234.4C90 235.4 90.2 236.3 90.2 237.2V243.1H75.4V244.3C75.4 245.4 75.7 246.2 76.3 246.6C76.9 247.1 77.8 247.3 78.8 247.3H89.4V252.4H77.6C76.5 252.4 75.6 252.2 74.7 251.8C73.7 251.4 72.9 250.8 72.2 250.2C71.6 249.5 71 248.6 70.6 247.6C70.2 246.7 70 245.6 70 244.4V237.4ZM75.5 238.7H84.9V238.5C84.9 237.3 84.6 236.4 84 235.6C83.4 234.8 82.6 234.4 81.5 234.4H78.7C78.2 234.4 77.8 234.5 77.4 234.8C76.9936 234.989 76.7 235.3 76.4 235.6C76.1 236 75.9 236.4 75.7 236.966C75.5 237.5 75.5 237.969 75.5 238.5V238.7Z" />
        <path d="M89.8 223.8L89.3 229.5C89.6 229.7 89.8 230 90 230.3C90.4 230.7 90.7 231.1 90.9 231.6H91.7C91.9828 230.9 92.4 230.2 92.9 229.6L92.9 229.6L92.9 229.6C93.2 229.2 93.6 228.8 93.9564 228.5L94.7 223.8L89.8 223.8Z" />
        <path d="M109.6 233.7H100.6C100.2 233.7 99.8 233.8 99.6 233.955C99.3 234.1 99.1 234.3 98.9 234.5C98.7 234.7 98.6 235 98.5 235.3C98.4 235.6 98.4 235.9 98.4 236.1C98.4 236.7 98.6 237.3 98.9 237.7C99.3 238.2 99.8 238.4 100.3 238.4H105.4C106.5 238.4 107.4 238.6 108.2 238.973C109 239.3 109.7 239.8 110.2 240.5C110.8 241.1 111.2 241.9 111.4 242.8C111.7 243.6 111.8 244.6 111.8 245.6V245.7C111.8 246.7 111.7 247.6 111.3 248.5C111 249.3 110.6 249.982 110 250.6C109.4 251.1 108.7 251.6 107.9 251.9C107.2 252.3 106.3 252.4 105.4 252.4H94.4V247.9H103.9C104.6 247.9 105.2 247.7 105.8 247.3C106.4 246.9 106.7 246.3 106.8 245.5V245.6C106.8 245.1 106.7 244.8 106.5 244.4C106.3 244.1 106.1 243.9 105.8 243.7C105.6 243.5 105.3 243.4 104.9 243.3C104.6 243.2 104.3 243.1 103.9 243.1H99.8C98.4 243.1 97.3 242.9 96.5 242.5C95.6 242.1 94.9 241.5 94.4 240.8C93.9 240.2 93.6 239.4 93.4 238.6C93.2 237.7 93.1 236.8 93.1 235.962C93.1 235 93.3 234.2 93.5 233.3C93.8 232.5 94.2 231.7 94.7 231.1C95.3 230.4 95.9 229.9 96.7 229.5C97.5 229.2 98.4 228.982 99.4 228.982H109.6V233.7Z" />
        <path d="M121.9 221.3H136.1C137.1 221.3 138.1 221.5 138.9 221.9C139.9 222.3 140.6 222.9 141.3 223.7C141.984 224.5 142.5 225.3 142.9 226.3C143.3 227.3 143.5 228.4 143.5 229.5V244.1C143.5 245.3 143.3 246.3 142.9 247.3C142.5 248.3 141.984 249.2 141.3 249.9C140.6 250.7 139.9 251.3 138.9 251.7C138.1 252.1 137.1 252.3 136.1 252.3H121.9V221.3ZM134.7 246.6C135.2 246.6 135.6 246.5 135.9 246.3C136.3 246.1 136.6 245.9 136.9 245.6C137.2 245.3 137.4 244.9 137.6 244.5C137.7 244.1 137.8 243.7 137.8 243.2V230.4C137.8 229.9 137.7 229.5 137.6 229.1C137.4 228.7 137.2 228.3 136.9 228C136.6 227.7 136.3 227.4 135.9 227.2C135.6 227.1 135.2 226.975 134.7 226.975H127.6V246.6H134.7Z" />
        <path d="M147.1 237.4C147.1 236.3 147.3 235.2 147.7 234.2C148.1 233.2 148.7 232.3 149.4 231.6C150.1 230.8 150.9 230.2 151.8 229.8C152.7 229.3 153.6 229.1 154.6 229.1H159.8C160.9 229.1 161.995 229.4 162.9 229.9C163.9 230.4 164.6 231 165.2 231.8C165.9 232.6 166.4 233.4 166.7 234.4C167.1 235.4 167.2 236.3 167.2 237.2V243.1H152.5V244.3C152.5 245.4 152.8 246.2 153.4 246.6C153.981 247.1 154.8 247.3 155.8 247.3H166.4V252.4H154.6C153.6 252.4 152.6 252.2 151.7 251.8C150.8 251.4 149.966 250.8 149.3 250.2C148.6 249.5 148.1 248.6 147.7 247.6C147.3 246.7 147.1 245.6 147.1 244.4V237.4ZM152.5 238.7H161.9V238.5C161.9 237.3 161.6 236.4 161 235.6C160.4 234.8 159.6 234.4 158.6 234.4H155.7C155.3 234.4 154.8 234.5 154.4 234.8C154 234.989 153.7 235.3 153.4 235.6C153.1 236 152.9 236.4 152.7 236.965C152.6 237.5 152.5 237.969 152.5 238.5V238.7Z" />
        <path d="M186.7 233.6H177.6C177.2 233.6 176.9 233.7 176.6 233.9C176.3 233.985 176.1 234.2 175.9 234.4C175.8 234.7 175.6 234.9 175.5 235.2C175.4 235.5 175.4 235.8 175.4 236.1C175.4 236.6 175.6 237.2 175.9 237.7C176.3 238.1 176.8 238.3 177.4 238.3H182.5C183.5 238.3 184.5 238.5 185.3 238.9C186.1 239.2 186.7 239.7 187.3 240.4C187.8 241 188.2 241.8 188.4 242.7C188.7 243.6 188.9 244.5 188.9 245.5V245.6C188.9 246.6 188.7 247.5 188.4 248.4C188.1 249.2 187.6 249.9 187 250.5C186.5 251 185.8 251.5 184.981 251.8C184.2 252.2 183.4 252.3 182.5 252.3H171.4V247.8H180.9C181.6 247.8 182.3 247.6 182.8 247.2C183.4 246.8 183.8 246.2 183.8 245.5V245.5C183.8 245 183.7 244.7 183.5 244.4C183.4 244.1 183.2 243.8 182.9 243.6C182.6 243.4 182.3 243.3 181.97 243.2C181.6 243.1 181.3 243 180.9 243H176.8C175.5 243 174.4 242.8 173.5 242.4C172.6 241.969 171.9 241.4 171.4 240.8C170.9 240.1 170.6 239.3 170.4 238.5C170.2 237.6 170.2 236.8 170.2 235.9C170.2 234.958 170.3 234.1 170.6 233.2C170.8 232.4 171.2 231.6 171.8 230.989C172.3 230.3 172.968 229.8 173.8 229.4C174.5 229.1 175.4 228.9 176.5 228.9H186.7V233.6Z" />
        <path d="M197.7 252.3H192.4V229.1H197.7V252.3ZM197.7 226.6H192.4V221.3H197.7V226.6Z" />
        <path d="M220.3 229.1V252.4C220.3 253.6 220.1 254.7 219.8 255.7C219.4 256.6 218.9 257.5 218.3 258.1C217.6 258.8 216.9 259.4 215.9 259.7C215 260 214 260.2 212.9 260.2H202.5V255.2H212.1C213 255.2 213.8 254.9 214.4 254.3C215 253.7 215.4 252.9 215.4 251.9V251.6H208.6C207.5 251.6 206.6 251.4 205.7 251.1C204.8 250.7 204 250.2 203.4 249.5C202.7 248.8 202.2 247.96 201.8 246.956C201.4 245.9 201.2 244.7 201.2 243.4V237.3C201.2 235.992 201.4 234.8 201.8 233.8C202.2 232.8 202.7 231.9 203.4 231.2C204 230.5 204.8 230 205.7 229.7C206.6 229.3 207.5 229.1 208.6 229.1H220.3ZM215.3 234.2H209.7C209.2 234.2 208.8 234.3 208.4 234.5C208 234.7 207.7 234.958 207.4 235.3C207.1 235.7 206.8 236 206.6 236.5C206.5 236.9 206.4 237.4 206.4 237.9V242.8C206.4 243.3 206.5 243.8 206.6 244.3C206.8 244.7 207.1 245.1 207.4 245.5C207.7 245.8 208 246.1 208.4 246.3C208.8 246.5 209.2 246.5 209.7 246.5H215.3V234.2Z" />
        <path d="M233.3 234.3C232.5 234.3 231.9 234.4 231.4 234.6C230.9 234.8 230.5 235.1 230.2 235.4C229.963 235.7 229.8 236.2 229.6 236.6C229.6 237.1 229.5 237.6 229.5 238.2V252.3H224.2V229.1H229.5V229.7C230.6 229.3 231.7 229.1 232.9 229.1H235.3C236.6 229.1 237.8 229.3 238.9 229.8C239.9 230.3 240.7 230.9 241.4 231.6C242.1 232.4 242.6 233.2 242.965 234.2C243.3 235.1 243.5 236.1 243.5 237.1V252.3H238.2V238.2C238.2 237.6 238.1 237.1 238 236.6C237.9 236.2 237.8 235.7 237.5 235.4C237.2 235.1 236.9 234.8 236.4 234.6C235.9 234.4 235.3 234.3 234.4 234.3H233.3Z" />
    </g>
    <path d="M53.2 106.959L51.5 61.8L54.3 41.3L58.8 38.3L58.7 31.5L70.1 17.1L85.6 8.6L90.7 8.9L93.9 4.4L112.4 1.6L132.7 3.9L137.5 7.8L139.6 5.95781L160.5 12.6L174.2 29L176.6 36.5L179.2 39.9503L184.3 58L185.2 86.8L181.6 108.8L187 109L190.6 123.5L183.8 143.4L178.5 152.8L172.5 153.4L164 170.995L152.4 186.3L134.6 198.9L112 200.1L94.8 188.9L74.1 166.7L66.9 150.966L60.9582 151.4L52.5 143.7L45.7 123.8L48.2 109.4L53.2 106.959Z" stroke="var(--dr)" stroke-width="1.5" stroke-linecap="round" stroke-linejoin="round"/>
</svg>
