<svg id="face" width="149" height="203" viewBox="0 0 149 203" fill="none" xmlns="http://www.w3.org/2000/svg">
    <g fill="var(--md)" opacity="0.6">
        <path id="shadowEye" d="M40.9745 93.4127L61.7751 99.9686L66.2515 105.428L73.8048 113.537L74.459 105.911L72.5072 99.4522L64.3086 96.6764L40.9745 93.4127Z" />
        <path id="mouth" d="M53.9868 154.02L56.1626 151.319L74.0672 153.431L77.7972 152.654L81.3717 153.897L99.8669 151.282L102.68 154.213L99.0732 157.825L84.2018 164.084L77.8832 165.172L70.536 163.709L57.2722 157.423L53.9868 154.02Z" />
        <path id="cheen" d="M64.55 169.609L72.2239 180.241L81.8329 181.115L90.8044 169.384L83.8099 174.416L71.3883 173.65L64.55 169.609Z" />
        <path id="shadowR"d="M121.899 52.1148L122.948 77.2485L119.743 86.8973L117.896 93.973L119.418 103.814L125.988 117.359L126.406 134.952L117.724 159.464L108.998 180.332L109.155 187.482L120.81 172.095L129.406 154.372L135.454 153.724L137.563 147.905L140.788 144.276L147.649 124.277L144.021 109.666L138.515 109.457L132.837 117.136L129.991 88.8L131.26 81.1279L131.262 66.1354L121.899 52.1148Z" />
        <path id="shadowL" d="M27.0394 69.635L28.2078 85.9835L23.6715 101.094L25.7422 129.415L32.7214 163.66L48.7189 181.782L51.0763 190.155L30.2969 167.797L23.0101 151.921L18.801 114.846L17.1928 100.447L23.0993 86.6951L21.4034 71.6302L31.9885 54.475L27.0394 69.635Z" />
        <path id="nose" d="M86.6566 100.649L93.47 97.7917L117.895 93.9735L94.6517 100.613L89.5368 107.936L90.1222 122.522L96.5811 129.313L94.0293 139.117L81.8722 140.715L76.0031 140.677L62.9809 138.099L60.4608 128.929L63.8799 134.791L73.1564 132.535L80.6749 134.957L87.3822 132.56L89.5075 127.091L85.3491 119.756L85.2202 106.977L86.6566 100.649Z" />
    </g>
    <path id="outline" d="M9.17657 107.594L7.52318 62.0747L10.3278 41.4632L14.8332 38.4147L14.7203 31.5405L26.2682 17.1066L41.8434 8.48436L46.9535 8.84936L50.1512 4.26L68.8571 1.43188L89.2942 3.73927L94.1249 7.73293L96.2674 5.85614L117.308 12.5419L131.083 29.1034L136.147 40.0964L141.244 58.3039L142.159 87.2757L138.515 109.457L144.022 109.666L147.648 124.276L140.788 144.277L137.564 147.905L135.454 153.725L129.406 154.372L120.81 172.096L109.154 187.482L91.2283 200.194L68.472 201.432L51.0763 190.155L30.2969 167.797L23.0101 151.921L17.0152 152.398L8.54474 144.565L1.62268 124.527L4.17291 110.046L9.17657 107.594Z" stroke="var(--dr)" stroke-width="2" stroke-linejoin="round"/>
    <g fill="var(--dr)">
        <path id="nosdrL" d="M66.247 136.063L71.1569 135.633L74.7321 137.218L69.0889 137.643L66.247 136.063Z" />
        <path id="nosdrR" d="M83.8677 138.007L87.7132 136.003L92.4117 136.823L88.1393 138.554L83.8677 138.007Z" />
        <path id="mstsh" d="M47.2295 151.635L48.5523 145.987L70.2988 141.847L78.5533 143.5L86.5173 142.719L109.226 147.499L110.014 152.863L106.959 150.65L84.7056 146.431L77.9316 146.919L71.715 145.52L50.5142 149.448L47.2295 151.635Z" />
        <path id="beard" d="M48.7189 181.782L51.0763 190.155L68.472 201.432L91.2282 200.194L109.154 187.482L108.999 180.333L90.0998 188.476L65.6518 189.48L48.7189 181.782Z" />
        <path id="hair" d="M132.836 117.135L129.991 88.7999L131.26 81.1279L131.262 66.136L119.225 47.9049L115.854 31.758L106.085 17.6094L112.719 31.6296L115.446 47.0457L105.827 44.8132L98.183 25.4673L76.1756 13.4435L94.4045 25.6395L102.349 45.5647L96.2563 44.9346L82.2159 33.0056L54.9839 32.2097L79.9334 35.1943L92.2165 46.2634L79.8039 47.7121L65.998 53.1003L55.1756 60.6366L31.9886 54.475L21.4034 71.6302L23.0993 86.6951L17.1928 100.447L18.801 114.846L9.17658 107.594L7.52319 62.0747L10.3278 41.4632L14.8332 38.4147L14.7203 31.5405L26.2683 17.1066L41.8435 8.48436L46.9535 8.84936L50.1512 4.26L68.8572 1.43188L89.2942 3.73927L94.1249 7.73293L96.2674 5.85614L117.308 12.5419L131.083 29.1034L133.456 36.5897L136.147 40.0964L141.244 58.3039L142.159 87.2757L138.516 109.457L132.836 117.135Z" />
        <path id="eyebrL" d="M30.9051 98.2039L40.0204 86.0923L65.755 91.5101L72.5072 99.4522L64.3086 96.6764L40.9745 93.4127L30.9051 98.2039Z" />
        <path id="eyebrR" d="M86.6566 100.649L90.8069 93.0473L119.743 86.8972L126.658 99.7698L117.895 93.9735L93.4701 97.7917L86.6566 100.649Z" />
        <path id="eyeL"d="M54.2518 97.5974L61.7751 99.9686L64.012 102.697L61.2221 100.86L58.4783 100.537L58.0421 103.133L53.898 104.681L49.4807 103.087L48.953 100.123L45.7167 100.079L40.9349 101.836L45.3136 98.8533L54.2518 97.5974Z" />
        <path id="eyeR" d="M104.674 97.7501L112.627 98.6172L118.737 102.666L111.972 100.838L108.879 100.696L108.148 103.785L104.505 105.288L100.68 103.649L100.099 100.712L95.4925 101.536L92.8772 103.153L94.6517 100.613L104.674 97.7501Z" />
    </g>
</svg>
